<svg width="16" height="16" viewBox="0 0 16 16" fill="none" xmlns="http://www.w3.org/2000/svg">
<path d="M6.72727 1C5.59453 1 4.48722 1.3359 3.54537 1.96522C2.60353 2.59454 1.86945 3.48902 1.43597 4.53554C1.00248 5.58206 0.889062 6.73362 1.11005 7.84461C1.33104 8.95559 1.87651 9.97609 2.67748 10.7771C3.47846 11.578 4.49896 12.1235 5.60994 12.3445C6.72092 12.5655 7.87248 12.4521 8.919 12.0186C9.96552 11.5851 10.86 10.851 11.4893 9.90917C12.1186 8.96733 12.4545 7.86002 12.4545 6.72727C12.4545 5.97516 12.3064 5.2304 12.0186 4.53554C11.7308 3.84067 11.3089 3.20931 10.7771 2.67748C10.2452 2.14565 9.61387 1.72378 8.919 1.43596C8.22414 1.14814 7.47939 1 6.72727 1V1Z" stroke="#F0F0F0" stroke-width="2" stroke-miterlimit="10"/>
<path d="M10.8351 10.835L15 15" stroke="#F0F0F0" stroke-width="2" stroke-miterlimit="10" stroke-linecap="round"/>
</svg>
