<svg width="60" height="17" viewBox="0 0 60 17" fill="none" xmlns="http://www.w3.org/2000/svg">
<path d="M25.5725 4.2V14H24.5505V9.478H18.4185V14H17.3825V4.2H18.4185V8.568H24.5505V4.2H25.5725ZM31.1765 6.58C32.1378 6.58 32.8752 6.82267 33.3885 7.308C33.9018 7.784 34.1585 8.49333 34.1585 9.436V14H33.2065V12.852C32.9825 13.2347 32.6512 13.5333 32.2125 13.748C31.7832 13.9627 31.2698 14.07 30.6725 14.07C29.8512 14.07 29.1978 13.874 28.7125 13.482C28.2272 13.09 27.9845 12.572 27.9845 11.928C27.9845 11.3027 28.2085 10.7987 28.6565 10.416C29.1138 10.0333 29.8372 9.842 30.8265 9.842H33.1645V9.394C33.1645 8.75933 32.9872 8.27867 32.6325 7.952C32.2778 7.616 31.7598 7.448 31.0785 7.448C30.6118 7.448 30.1638 7.52733 29.7345 7.686C29.3052 7.83533 28.9365 8.04533 28.6285 8.316L28.1805 7.574C28.5538 7.25667 29.0018 7.014 29.5245 6.846C30.0472 6.66867 30.5978 6.58 31.1765 6.58ZM30.8265 13.286C31.3865 13.286 31.8672 13.16 32.2685 12.908C32.6698 12.6467 32.9685 12.2733 33.1645 11.788V10.584H30.8545C29.5945 10.584 28.9645 11.0227 28.9645 11.9C28.9645 12.3293 29.1278 12.67 29.4545 12.922C29.7812 13.1647 30.2385 13.286 30.8265 13.286ZM40.2382 10.164C40.7609 10.2853 41.1622 10.4953 41.4422 10.794C41.7316 11.0927 41.8762 11.4567 41.8762 11.886C41.8762 12.3153 41.7269 12.698 41.4282 13.034C41.1389 13.37 40.7422 13.6313 40.2382 13.818C39.7342 13.9953 39.1789 14.084 38.5722 14.084C38.0402 14.084 37.5176 14.0093 37.0042 13.86C36.4909 13.7013 36.0429 13.4727 35.6602 13.174L35.9962 12.432C36.3322 12.684 36.7242 12.88 37.1722 13.02C37.6202 13.16 38.0729 13.23 38.5302 13.23C39.2116 13.23 39.7669 13.104 40.1962 12.852C40.6349 12.5907 40.8542 12.2407 40.8542 11.802C40.8542 11.41 40.6769 11.1067 40.3222 10.892C39.9676 10.668 39.4822 10.556 38.8662 10.556H37.6062V9.828H38.8102C39.3609 9.828 39.8042 9.72533 40.1402 9.52C40.4762 9.30533 40.6442 9.02067 40.6442 8.666C40.6442 8.274 40.4529 7.966 40.0702 7.742C39.6969 7.518 39.2069 7.406 38.6002 7.406C37.8069 7.406 37.0229 7.60667 36.2482 8.008L35.9682 7.238C36.8456 6.78067 37.7556 6.552 38.6982 6.552C39.2582 6.552 39.7622 6.636 40.2102 6.804C40.6676 6.96267 41.0222 7.19133 41.2742 7.49C41.5356 7.78867 41.6662 8.134 41.6662 8.526C41.6662 8.89933 41.5356 9.23067 41.2742 9.52C41.0222 9.80933 40.6769 10.024 40.2382 10.164ZM46.6668 6.58C47.6281 6.58 48.3654 6.82267 48.8788 7.308C49.3921 7.784 49.6488 8.49333 49.6488 9.436V14H48.6968V12.852C48.4728 13.2347 48.1414 13.5333 47.7028 13.748C47.2734 13.9627 46.7601 14.07 46.1628 14.07C45.3414 14.07 44.6881 13.874 44.2028 13.482C43.7174 13.09 43.4748 12.572 43.4748 11.928C43.4748 11.3027 43.6988 10.7987 44.1468 10.416C44.6041 10.0333 45.3274 9.842 46.3167 9.842H48.6548V9.394C48.6548 8.75933 48.4774 8.27867 48.1228 7.952C47.7681 7.616 47.2501 7.448 46.5688 7.448C46.1021 7.448 45.6541 7.52733 45.2248 7.686C44.7954 7.83533 44.4268 8.04533 44.1188 8.316L43.6708 7.574C44.0441 7.25667 44.4921 7.014 45.0148 6.846C45.5374 6.66867 46.0881 6.58 46.6668 6.58ZM46.3167 13.286C46.8768 13.286 47.3574 13.16 47.7588 12.908C48.1601 12.6467 48.4588 12.2733 48.6548 11.788V10.584H46.3448C45.0848 10.584 44.4548 11.0227 44.4548 11.9C44.4548 12.3293 44.6181 12.67 44.9448 12.922C45.2714 13.1647 45.7288 13.286 46.3167 13.286ZM59.4769 13.132V15.778H58.5389V14H51.9449V15.778H51.0069V13.132H51.4269C51.9215 13.104 52.2575 12.74 52.4349 12.04C52.6122 11.34 52.7335 10.36 52.7989 9.1L52.8969 6.636H58.3289V13.132H59.4769ZM53.7089 9.156C53.6622 10.2013 53.5735 11.0647 53.4429 11.746C53.3122 12.418 53.0789 12.88 52.7429 13.132H57.3349V7.518H53.7929L53.7089 9.156Z" fill="#666666"/>
<path d="M0.646447 8.64645C0.451184 8.84171 0.451184 9.15829 0.646447 9.35355L3.82843 12.5355C4.02369 12.7308 4.34027 12.7308 4.53553 12.5355C4.7308 12.3403 4.7308 12.0237 4.53553 11.8284L1.70711 9L4.53553 6.17157C4.7308 5.97631 4.7308 5.65973 4.53553 5.46447C4.34027 5.2692 4.02369 5.2692 3.82843 5.46447L0.646447 8.64645ZM11.5 9.5C11.7761 9.5 12 9.27614 12 9C12 8.72386 11.7761 8.5 11.5 8.5V9.5ZM1 9.5H11.5V8.5H1V9.5Z" fill="#666666"/>
</svg>
